<?xml version="1.0" encoding="utf-8"?>
<!-- Generator: Adobe Illustrator 21.0.0, SVG Export Plug-In . SVG Version: 6.00 Build 0)  -->
<svg version="1.1" id="GLYPHS" xmlns="http://www.w3.org/2000/svg" xmlns:xlink="http://www.w3.org/1999/xlink" x="0px" y="0px"
	 viewBox="0 0 16.2 20" style="enable-background:new 0 0 16.2 20;" xml:space="preserve">
<style type="text/css">
	.st0{fill:#FFFFFF;}
	.st1{fill:none;}
</style>
<g id="Mac">
	<g id="Apple_2_">
		<path class="st0" d="M16.2,14.3c-0.1,0.3-0.2,0.6-0.3,0.9c-0.3,0.7-0.6,1.3-1,1.8c-0.5,0.8-1,1.3-1.3,1.6
			c-0.5,0.5-1.1,0.7-1.7,0.7c-0.4,0-0.9-0.1-1.6-0.4s-1.2-0.4-1.7-0.4c-0.5,0-1.1,0.1-1.7,0.4s-1.1,0.4-1.5,0.4
			c-0.6,0-1.2-0.2-1.7-0.8c-0.4-0.3-0.8-0.9-1.4-1.6c-0.6-0.8-1.1-1.8-1.5-2.9c-0.4-1.2-0.6-2.3-0.6-3.5c0-1.3,0.3-2.4,0.8-3.3
			C1.4,6.6,2,6,2.7,5.6S4.2,5,5.1,4.9c0.5,0,1.1,0.1,1.8,0.4s1.2,0.4,1.4,0.4c0.2,0,0.7-0.2,1.6-0.5c0.9-0.3,1.6-0.4,2.2-0.4
			c1.6,0.1,2.8,0.8,3.6,1.9c-1.4,0.9-2.1,2.1-2.1,3.6c0,1.2,0.4,2.2,1.3,3C15.3,13.8,15.7,14.1,16.2,14.3z M12.2,0.4
			c0,0.1,0,0.2,0,0.4c0,0.9-0.4,1.8-1,2.7c-0.8,1-1.9,1.5-2.9,1.4c0-0.1,0-0.2,0-0.4c0-0.9,0.4-1.9,1.1-2.7c0.4-0.4,0.8-0.7,1.3-1
			C11.2,0.6,11.7,0.4,12.2,0.4z"/>
	</g>
	<g>
		<rect x="-1.9" y="-9.9" class="st1" width="20" height="44"/>
	</g>
</g>
</svg>
