<?xml version="1.0" encoding="utf-8"?>
<!-- Generator: Adobe Illustrator 21.0.0, SVG Export Plug-In . SVG Version: 6.00 Build 0)  -->
<svg version="1.1" id="GLYPHS" xmlns="http://www.w3.org/2000/svg" xmlns:xlink="http://www.w3.org/1999/xlink" x="0px" y="0px"
	 viewBox="0 0 14 17.1" style="enable-background:new 0 0 14 17.1;" xml:space="preserve">
<style type="text/css">
	.st0{fill:#FFFFFF;}
</style>
<g id="MSP_Bag_Empty_2_">
	<g id="MSP_Bag_Empty">
		<path class="st0" d="M1.5,3C0.7,3,0,3.7,0,4.5v11C0,16.3,0.7,17,1.5,17h11c0.8,0,1.5-0.7,1.5-1.5v-11C14,3.7,13.3,3,12.5,3H1.5z
			 M13,15.5c0,0.3-0.2,0.5-0.5,0.5h-11C1.2,16,1,15.8,1,15.5v-11C1,4.2,1.2,4,1.5,4h11C12.8,4,13,4.2,13,4.5V15.5z"/>
	</g>
	<g>
		<path class="st0" d="M10.8,4H3.2V3.5C3.2,1.3,5.2,0,7,0s3.8,1.3,3.8,3.5V4z M4.3,3h5.4C9.4,1.8,8.2,1,7,1S4.6,1.8,4.3,3z"/>
	</g>
</g>
</svg>
